<mxfile host="65bd71144e">
    <diagram id="ERD-Salud-Hoy" name="Diagrama ER - Salud Hoy">
        <mxGraphModel dx="914" dy="584" grid="1" gridSize="10" guides="1" tooltips="1" connect="1" arrows="1" fold="1" page="1" pageScale="1" pageWidth="1169" pageHeight="827" math="0" shadow="0">
            <root>
                <mxCell id="0"/>
                <mxCell id="1" parent="0"/>
                <mxCell id="2" value="usuario_perfil" style="swimlane;fontStyle=1;childLayout=stackLayout;horizontal=1;startSize=30;horizontalStack=0;resizeParent=1;resizeParentMax=0;resizeLast=0;collapsible=1;marginBottom=0;align=center;fontSize=14;" parent="1" vertex="1">
                    <mxGeometry x="305" y="150" width="200" height="150" as="geometry"/>
                </mxCell>
                <mxCell id="3" value="PK  id: INTEGER" style="text;spacingLeft=4;spacingRight=4;overflow=hidden;rotatable=0;points=[[0,0.5],[1,0.5]];portConstraint=eastwest;fontSize=12;fontStyle=4" parent="2" vertex="1">
                    <mxGeometry y="30" width="200" height="30" as="geometry"/>
                </mxCell>
                <mxCell id="4" value="     name: TEXT" style="text;spacingLeft=4;spacingRight=4;overflow=hidden;rotatable=0;points=[[0,0.5],[1,0.5]];portConstraint=eastwest;fontSize=12;" parent="2" vertex="1">
                    <mxGeometry y="60" width="200" height="30" as="geometry"/>
                </mxCell>
                <mxCell id="5" value="     goal: TEXT" style="text;spacingLeft=4;spacingRight=4;overflow=hidden;rotatable=0;points=[[0,0.5],[1,0.5]];portConstraint=eastwest;fontSize=12;" parent="2" vertex="1">
                    <mxGeometry y="90" width="200" height="30" as="geometry"/>
                </mxCell>
                <mxCell id="6" value="     created_at: DATETIME" style="text;spacingLeft=4;spacingRight=4;overflow=hidden;rotatable=0;points=[[0,0.5],[1,0.5]];portConstraint=eastwest;fontSize=12;" parent="2" vertex="1">
                    <mxGeometry y="120" width="200" height="30" as="geometry"/>
                </mxCell>
                <mxCell id="7" value="habito" style="swimlane;fontStyle=1;childLayout=stackLayout;horizontal=1;startSize=30;horizontalStack=0;resizeParent=1;resizeParentMax=0;resizeLast=0;collapsible=1;marginBottom=0;align=center;fontSize=14;" parent="1" vertex="1">
                    <mxGeometry x="260" y="620" width="200" height="120" as="geometry"/>
                </mxCell>
                <mxCell id="8" value="PK  key: TEXT" style="text;spacingLeft=4;spacingRight=4;overflow=hidden;rotatable=0;points=[[0,0.5],[1,0.5]];portConstraint=eastwest;fontSize=12;fontStyle=4" parent="7" vertex="1">
                    <mxGeometry y="30" width="200" height="30" as="geometry"/>
                </mxCell>
                <mxCell id="9" value="     title: TEXT" style="text;spacingLeft=4;spacingRight=4;overflow=hidden;rotatable=0;points=[[0,0.5],[1,0.5]];portConstraint=eastwest;fontSize=12;" parent="7" vertex="1">
                    <mxGeometry y="60" width="200" height="30" as="geometry"/>
                </mxCell>
                <mxCell id="10" value="     is_active: INTEGER" style="text;spacingLeft=4;spacingRight=4;overflow=hidden;rotatable=0;points=[[0,0.5],[1,0.5]];portConstraint=eastwest;fontSize=12;" parent="7" vertex="1">
                    <mxGeometry y="90" width="200" height="30" as="geometry"/>
                </mxCell>
                <mxCell id="11" value="Sessiones" style="swimlane;fontStyle=1;childLayout=stackLayout;horizontal=1;startSize=30;horizontalStack=0;resizeParent=1;resizeParentMax=0;resizeLast=0;collapsible=1;marginBottom=0;align=center;fontSize=14;" parent="1" vertex="1">
                    <mxGeometry x="90" y="393" width="200" height="60" as="geometry"/>
                </mxCell>
                <mxCell id="12" value="PK  day_date: TEXT" style="text;spacingLeft=4;spacingRight=4;overflow=hidden;rotatable=0;points=[[0,0.5],[1,0.5]];portConstraint=eastwest;fontSize=12;fontStyle=4" parent="11" vertex="1">
                    <mxGeometry y="30" width="200" height="30" as="geometry"/>
                </mxCell>
                <mxCell id="13" value="habitos_del_dia" style="swimlane;fontStyle=1;childLayout=stackLayout;horizontal=1;startSize=30;horizontalStack=0;resizeParent=1;resizeParentMax=0;resizeLast=0;collapsible=1;marginBottom=0;align=center;fontSize=14;" parent="1" vertex="1">
                    <mxGeometry x="520" y="370" width="200" height="120" as="geometry"/>
                </mxCell>
                <mxCell id="14" value="PK, day_date: TEXT" style="text;spacingLeft=4;spacingRight=4;overflow=hidden;rotatable=0;points=[[0,0.5],[1,0.5]];portConstraint=eastwest;fontSize=12;fontStyle=5" parent="13" vertex="1">
                    <mxGeometry y="30" width="200" height="30" as="geometry"/>
                </mxCell>
                <mxCell id="15" value="PK,FK  habit_key: TEXT" style="text;spacingLeft=4;spacingRight=4;overflow=hidden;rotatable=0;points=[[0,0.5],[1,0.5]];portConstraint=eastwest;fontSize=12;fontStyle=5" parent="13" vertex="1">
                    <mxGeometry y="60" width="200" height="30" as="geometry"/>
                </mxCell>
                <mxCell id="16" value="     done: INTEGER" style="text;spacingLeft=4;spacingRight=4;overflow=hidden;rotatable=0;points=[[0,0.5],[1,0.5]];portConstraint=eastwest;fontSize=12;" parent="13" vertex="1">
                    <mxGeometry y="90" width="200" height="30" as="geometry"/>
                </mxCell>
                <mxCell id="17" value="" style="edgeStyle=entityRelationEdgeStyle;fontSize=12;html=1;endArrow=ERmany;startArrow=ERone;exitX=0;exitY=0.5;exitDx=0;exitDy=0;entryX=1;entryY=0.5;entryDx=0;entryDy=0;strokeWidth=2;" parent="1" source="14" target="12" edge="1">
                    <mxGeometry width="100" height="100" relative="1" as="geometry">
                        <mxPoint x="510" y="430" as="sourcePoint"/>
                        <mxPoint x="310" y="445" as="targetPoint"/>
                    </mxGeometry>
                </mxCell>
                <mxCell id="18" value="" style="edgeStyle=entityRelationEdgeStyle;fontSize=12;html=1;endArrow=ERmany;startArrow=ERone;exitX=0;exitY=0.5;exitDx=0;exitDy=0;entryX=1;entryY=0.5;entryDx=0;entryDy=0;strokeWidth=2;" parent="1" source="15" target="8" edge="1">
                    <mxGeometry width="100" height="100" relative="1" as="geometry">
                        <mxPoint x="520" y="445" as="sourcePoint"/>
                        <mxPoint x="720" y="145" as="targetPoint"/>
                    </mxGeometry>
                </mxCell>
                <mxCell id="19" value="1" style="text;html=1;align=center;verticalAlign=middle;resizable=0;points=[];autosize=1;fontSize=14;fontStyle=1" parent="1" vertex="1">
                    <mxGeometry x="310" y="408" width="30" height="30" as="geometry"/>
                </mxCell>
                <mxCell id="20" value="N" style="text;html=1;align=center;verticalAlign=middle;resizable=0;points=[];autosize=1;fontSize=14;fontStyle=1" parent="1" vertex="1">
                    <mxGeometry x="480" y="393" width="30" height="30" as="geometry"/>
                </mxCell>
                <mxCell id="21" value="1" style="text;html=1;align=center;verticalAlign=middle;resizable=0;points=[];autosize=1;fontSize=14;fontStyle=1" parent="1" vertex="1">
                    <mxGeometry x="490" y="650" width="30" height="30" as="geometry"/>
                </mxCell>
                <mxCell id="22" value="N" style="text;html=1;align=center;verticalAlign=middle;resizable=0;points=[];autosize=1;fontSize=14;fontStyle=1" parent="1" vertex="1">
                    <mxGeometry x="480" y="423" width="30" height="30" as="geometry"/>
                </mxCell>
                <mxCell id="23" value="&lt;h1&gt;Diagrama Entidad-Relación&lt;/h1&gt;&lt;p style=&quot;font-size: 13px;&quot;&gt;&lt;b&gt;Sistema:&lt;/b&gt; Salud Hoy - Seguimiento de Hábitos Saludables&lt;/p&gt;&lt;p style=&quot;font-size: 13px;&quot;&gt;&lt;b&gt;Base de Datos:&lt;/b&gt; SQLite&lt;/p&gt;&lt;p style=&quot;font-size: 13px;&quot;&gt;&lt;b&gt;Tablas:&lt;/b&gt; 4 entidades&lt;/p&gt;" style="text;html=1;spacing=5;spacingTop=-20;whiteSpace=wrap;overflow=hidden;rounded=0;fontSize=13;" parent="1" vertex="1">
                    <mxGeometry x="850" y="20" width="310" height="220" as="geometry"/>
                </mxCell>
                <mxCell id="24" value="&lt;h2 style=&quot;font-size: 14px;&quot;&gt;Relaciones&lt;/h2&gt;&lt;p&gt;&lt;b&gt;day_habit - day&lt;/b&gt;&lt;br&gt;Cardinalidad: 1:N&lt;br&gt;Un día puede tener muchos hábitos registrados&lt;/p&gt;&lt;p&gt;&lt;b&gt;day_habit - habit&lt;/b&gt;&lt;br&gt;Cardinalidad: 1:N&lt;br&gt;Un hábito puede estar registrado en muchos días&lt;/p&gt;&lt;p&gt;&lt;b&gt;Clave Compuesta:&lt;/b&gt; (day_date, habit_key)&lt;/p&gt;" style="text;html=1;spacing=5;spacingTop=-20;whiteSpace=wrap;overflow=hidden;rounded=0;fontSize=12;" parent="1" vertex="1">
                    <mxGeometry x="850" y="230" width="310" height="210" as="geometry"/>
                </mxCell>
                <mxCell id="25" value="&lt;h2 style=&quot;font-size: 14px;&quot;&gt;Leyenda&lt;/h2&gt;&lt;p&gt;&lt;span style=&quot;background-color: rgb(213, 232, 212);&quot;&gt;■&lt;/span&gt; Entidades Principales&lt;br&gt;&lt;span style=&quot;background-color: rgb(255, 242, 204);&quot;&gt;■&lt;/span&gt; Tabla de Relación (M:N)&lt;/p&gt;&lt;p&gt;&lt;b&gt;PK&lt;/b&gt; = Primary Key (Clave Primaria)&lt;br&gt;&lt;b&gt;FK&lt;/b&gt; = Foreign Key (Clave Foránea)&lt;/p&gt;" style="text;html=1;spacing=5;spacingTop=-20;whiteSpace=wrap;overflow=hidden;rounded=0;fontSize=12;" parent="1" vertex="1">
                    <mxGeometry x="850" y="400" width="310" height="150" as="geometry"/>
                </mxCell>
                <mxCell id="28" value="&lt;b&gt;Perfil del Usuario&lt;/b&gt;&lt;br&gt;Información personal" style="text;html=1;align=center;verticalAlign=middle;resizable=0;points=[];autosize=1;fontSize=11;" parent="1" vertex="1">
                    <mxGeometry x="335" y="310" width="140" height="40" as="geometry"/>
                </mxCell>
                <mxCell id="29" value="&lt;b&gt;Catálogo de Hábitos&lt;/b&gt;&lt;br&gt;4 hábitos disponibles" style="text;html=1;align=center;verticalAlign=middle;resizable=0;points=[];autosize=1;fontSize=11;" parent="1" vertex="1">
                    <mxGeometry x="280" y="570" width="150" height="40" as="geometry"/>
                </mxCell>
                <mxCell id="30" value="&lt;b&gt;Días Registrados&lt;/b&gt;&lt;br&gt;Fechas únicas" style="text;html=1;align=center;verticalAlign=middle;resizable=0;points=[];autosize=1;fontSize=11;" parent="1" vertex="1">
                    <mxGeometry x="115" y="463" width="130" height="40" as="geometry"/>
                </mxCell>
                <mxCell id="31" value="&lt;b&gt;Hábitos Completados&lt;/b&gt;&lt;br&gt;Seguimiento diario" style="text;html=1;align=center;verticalAlign=middle;resizable=0;points=[];autosize=1;fontSize=11;" parent="1" vertex="1">
                    <mxGeometry x="535" y="500" width="160" height="40" as="geometry"/>
                </mxCell>
            </root>
        </mxGraphModel>
    </diagram>
</mxfile>